<svg xmlns="http://www.w3.org/2000/svg" viewBox="0 0 48 16" fill="none">
  <rect width="48" height="16" rx="2" fill="#00A651"/>
  <path d="M18 4C16.9 4 16 4.9 16 6V7H15C14.4 7 14 7.4 14 8V13C14 13.6 14.4 14 15 14H21C21.6 14 22 13.6 22 13V8C22 7.4 21.6 7 21 7H20V6C20 4.9 19.1 4 18 4ZM18 5C18.6 5 19 5.4 19 6V7H17V6C17 5.4 17.4 5 18 5ZM17.5 9.5C18.3 9.5 19 10.2 19 11C19 11.8 18.3 12.5 17.5 12.5C16.7 12.5 16 11.8 16 11C16 10.2 16.7 9.5 17.5 9.5Z" fill="white"/>
  <text x="25" y="11" font-family="Arial, sans-serif" font-size="6" font-weight="bold" fill="white">SSL</text>
</svg>