<svg xmlns="http://www.w3.org/2000/svg" viewBox="0 0 60 25" fill="none">
  <rect width="60" height="25" rx="3" fill="#635BFF"/>
  <path d="M14.5 11.8C14.5 11.2 14.9 10.9 15.6 10.9C16.7 10.9 18.1 11.3 19.2 11.9V8.8C18.0 8.3 16.8 8 15.6 8C12.8 8 10.8 9.4 10.8 11.9C10.8 16.2 16.8 15.4 16.8 17.1C16.8 17.8 16.3 18.1 15.5 18.1C14.3 18.1 12.8 17.6 11.6 17V20.2C12.9 20.8 14.2 21.1 15.5 21.1C18.4 21.1 20.5 19.7 20.5 17.2C20.5 12.7 14.5 13.6 14.5 11.8Z" fill="white"/>
  <path d="M25.8 8C24.6 8 23.7 8.5 23.1 9.2L22.9 8.2H19.8V25.5L23.4 24.8L23.5 20.5C24.1 21 25 21.4 26.1 21.4C28.5 21.4 30.7 19.6 30.7 14.6C30.7 10.1 28.4 8 25.8 8ZM24.9 18.2C24.2 18.2 23.8 18 23.5 17.6L23.4 11.7C23.7 11.2 24.2 11 24.9 11C26.1 11 26.9 12.4 26.9 14.6C26.9 16.9 26.1 18.2 24.9 18.2Z" fill="white"/>
  <path d="M35.8 8C32.9 8 30.9 10.1 30.9 14.7C30.9 19.3 32.9 21.3 35.8 21.3C38.7 21.3 40.7 19.2 40.7 14.7C40.7 10.1 38.7 8 35.8 8ZM35.8 18.1C34.6 18.1 34.1 16.9 34.1 14.7C34.1 12.5 34.6 11.3 35.8 11.3C37 11.3 37.5 12.5 37.5 14.7C37.5 16.9 37 18.1 35.8 18.1Z" fill="white"/>
  <path d="M48.2 8C46.9 8 46 8.6 45.3 9.2L45.2 8.2H42V21H45.6V12.3C46.2 11.7 47 11.4 47.7 11.4C48.8 11.4 49.3 12 49.3 13.2V21H52.9V12.5C52.9 9.6 51.4 8 48.2 8Z" fill="white"/>
  <path d="M59.5 14.1C59.5 11.7 58.6 10.4 56.7 9.7L55.1 9.1C54.1 8.7 53.7 8.4 53.7 7.8C53.7 7.1 54.3 6.7 55.2 6.7C56.3 6.7 57.5 7.1 58.5 7.6L59.7 5C58.5 4.3 57.0 4 55.3 4C52.5 4 50.6 5.5 50.6 7.9C50.6 10.2 51.6 11.4 53.4 12.1L55 12.7C56.1 13.1 56.4 13.4 56.4 14C56.4 14.8 55.8 15.2 54.8 15.2C53.5 15.2 52.2 14.7 51.1 14.1L49.9 16.8C51.2 17.5 52.8 17.9 54.7 17.9C57.7 17.9 59.5 16.5 59.5 14.1Z" fill="white"/>
</svg>