
<svg xmlns="http://www.w3.org/2000/svg" viewBox="0 0 512 132">
  <path fill="#635BFF" d="M392 66c0-35-17-51-50-51-18 0-31 6-39 17l-2-13h-33v130l38-8V99c8 11 21 17 37 17 33 0 49-17 49-50zm-38 4c0 14-10 23-24 23s-24-9-24-23 10-23 24-23 24 9 24 23zM256 15l-37 8v98h37V15zm-55 24l-2-13h-34v98h38V63c0-21 25-27 39-22V7c-13-5-31-5-41 7zm-97 3c-12 0-19 5-23 13l-2-10H41v98h38V85c0-14 11-20 25-20 4 0 7 1 10 2V37c-3-1-7-1-10-1zM78 0L40 8v97h38V0zM458 32c-11 0-20 3-25 11l-2-9h-33v98h38V79c0-13 9-17 20-17 4 0 8 0 11 1V33c-3-1-6-1-9-1zM476 52l38-8v98h-38V52z"/>
</svg>
