<svg xmlns="http://www.w3.org/2000/svg" viewBox="0 0 48 16" fill="none">
  <rect width="48" height="16" rx="2" fill="#1434CB"/>
  <path d="M19.5 4.5L17.2 11.5H15.3L14.1 6.2C14.05 5.95 13.9 5.75 13.7 5.65C13.3 5.45 12.7 5.25 12.2 5.1L12.25 4.9H15.5C15.9 4.9 16.2 5.15 16.3 5.55L17 9.3L18.9 4.9H20.8L19.5 4.5ZM28.8 9.35C28.8 7.45 26.2 7.35 26.2 6.55C26.2 6.25 26.5 5.95 27.1 5.85C27.4 5.8 28.2 5.75 29.1 6.15L29.4 4.75C28.9 4.55 28.2 4.35 27.4 4.35C25.6 4.35 24.4 5.35 24.4 6.75C24.4 7.75 25.3 8.3 26 8.65C26.7 9 26.95 9.25 26.95 9.6C26.95 10.15 26.3 10.4 25.7 10.4C24.8 10.4 24.3 10.25 23.6 9.95L23.3 11.4C24 11.7 25.3 11.95 26.65 11.95C28.6 11.95 29.8 10.95 29.8 9.45L28.8 9.35ZM34.5 11.5H36.1L34.7 4.9H33.2C32.85 4.9 32.55 5.1 32.4 5.4L29.8 11.5H31.7L32.1 10.4H34.4L34.5 11.5ZM32.6 8.95L33.5 6.45L34 8.95H32.6ZM23.5 4.9L22 11.5H20.2L21.7 4.9H23.5Z" fill="white"/>
</svg>